<?xml version="1.0" encoding="UTF-8"?><svg xmlns="http://www.w3.org/2000/svg" xmlns:xlink="http://www.w3.org/1999/xlink" width="375" zoomAndPan="magnify" viewBox="0 0 375 374.999991" height="374.999991" preserveAspectRatio="xMidYMid meet" version="1.0"><defs><clipPath id="clip-0"><path d="M 126.828125 94.457031 L 248.328125 94.457031 L 248.328125 200.207031 L 126.828125 200.207031 Z M 126.828125 94.457031 " clip-rule="nonzero"/></clipPath><clipPath id="clip-1"><path d="M 236.367188 135.402344 C 235.714844 135.402344 235.066406 135.453125 234.421875 135.5625 C 233.777344 135.667969 233.144531 135.824219 232.523438 136.035156 C 231.90625 136.246094 231.308594 136.503906 230.734375 136.8125 C 230.15625 137.117188 229.609375 137.472656 229.089844 137.867188 C 228.574219 138.265625 228.089844 138.703125 227.644531 139.179688 C 227.195312 139.65625 226.792969 140.164062 226.429688 140.707031 C 226.066406 141.25 225.75 141.816406 225.480469 142.414062 C 225.210938 143.007812 224.992188 143.617188 224.824219 144.25 C 224.65625 144.878906 224.539062 145.519531 224.476562 146.167969 C 224.414062 146.816406 224.402344 147.46875 224.445312 148.117188 C 224.488281 148.769531 224.585938 149.414062 224.734375 150.046875 C 224.882812 150.683594 225.082031 151.300781 225.335938 151.90625 C 225.585938 152.507812 225.882812 153.085938 226.230469 153.636719 C 226.574219 154.191406 226.964844 154.714844 227.394531 155.203125 C 227.828125 155.691406 228.296875 156.144531 228.800781 156.558594 C 229.308594 156.96875 229.84375 157.339844 230.410156 157.664062 C 230.136719 158.789062 229.820312 159.898438 229.460938 161 C 229.097656 162.097656 228.695312 163.179688 228.246094 164.246094 C 227.800781 165.3125 227.3125 166.359375 226.785156 167.390625 C 226.253906 168.417969 225.683594 169.425781 225.078125 170.40625 C 224.46875 171.390625 223.820312 172.351562 223.136719 173.28125 C 222.453125 174.214844 221.730469 175.121094 220.976562 175.996094 C 220.21875 176.871094 219.429688 177.71875 218.609375 178.53125 C 217.785156 179.34375 216.933594 180.125 216.046875 180.875 C 215.164062 181.621094 214.253906 182.332031 213.3125 183.007812 C 212.371094 183.679688 211.40625 184.320312 210.414062 184.917969 C 209.425781 185.515625 208.414062 186.078125 207.378906 186.597656 C 206.34375 187.117188 205.289062 187.59375 204.214844 188.03125 C 203.144531 188.46875 202.054688 188.859375 200.953125 189.210938 C 199.847656 189.5625 198.734375 189.871094 197.605469 190.132812 C 196.476562 190.394531 195.339844 190.613281 194.195312 190.789062 C 193.050781 190.960938 191.902344 191.089844 190.746094 191.175781 C 189.589844 191.257812 188.433594 191.296875 187.273438 191.289062 C 186.117188 191.28125 184.960938 191.226562 183.808594 191.128906 C 182.652344 191.03125 181.503906 190.886719 180.363281 190.695312 C 179.21875 190.507812 178.085938 190.273438 176.960938 189.996094 C 175.835938 189.71875 174.726562 189.394531 173.628906 189.03125 C 172.527344 188.664062 171.445312 188.257812 170.378906 187.804688 C 169.3125 187.355469 168.265625 186.863281 167.238281 186.328125 C 166.210938 185.796875 165.203125 185.222656 164.222656 184.609375 C 163.238281 184 162.28125 183.347656 161.351562 182.660156 C 160.421875 181.972656 159.515625 181.25 158.644531 180.492188 C 157.769531 179.734375 156.925781 178.941406 156.113281 178.117188 C 155.304688 177.289062 154.527344 176.433594 153.78125 175.550781 C 153.039062 174.664062 152.328125 173.75 151.65625 172.808594 C 150.984375 171.867188 150.351562 170.898438 149.757812 169.90625 C 149.160156 168.914062 148.605469 167.902344 148.089844 166.867188 C 147.574219 165.832031 147.101562 164.777344 146.667969 163.703125 C 144.429688 164.957031 142.027344 165.582031 139.464844 165.578125 C 138.914062 165.574219 138.367188 165.546875 137.820312 165.484375 C 138.117188 166.300781 138.4375 167.109375 138.777344 167.910156 C 139.320312 169.191406 139.910156 170.449219 140.550781 171.679688 C 141.191406 172.914062 141.882812 174.121094 142.617188 175.300781 C 143.355469 176.480469 144.136719 177.628906 144.960938 178.746094 C 145.789062 179.863281 146.660156 180.949219 147.570312 181.996094 C 148.484375 183.046875 149.4375 184.058594 150.429688 185.035156 C 151.421875 186.007812 152.449219 186.941406 153.515625 187.835938 C 154.582031 188.730469 155.683594 189.578125 156.816406 190.386719 C 157.949219 191.195312 159.113281 191.953125 160.304688 192.671875 C 161.5 193.386719 162.71875 194.054688 163.964844 194.671875 C 165.210938 195.292969 166.480469 195.859375 167.769531 196.382812 C 169.0625 196.902344 170.371094 197.367188 171.699219 197.785156 C 173.027344 198.203125 174.371094 198.566406 175.726562 198.875 C 177.082031 199.1875 178.449219 199.445312 179.828125 199.648438 C 181.203125 199.851562 182.585938 200 183.976562 200.09375 C 185.363281 200.1875 186.753906 200.226562 188.148438 200.214844 C 189.539062 200.199219 190.929688 200.128906 192.316406 200.003906 C 193.703125 199.878906 195.082031 199.703125 196.453125 199.46875 C 197.824219 199.234375 199.1875 198.949219 200.535156 198.609375 C 201.886719 198.269531 203.21875 197.878906 204.539062 197.433594 C 205.859375 196.988281 207.15625 196.492188 208.4375 195.945312 C 209.714844 195.398438 210.972656 194.800781 212.203125 194.15625 C 213.4375 193.507812 214.640625 192.816406 215.820312 192.074219 C 216.996094 191.332031 218.144531 190.546875 219.261719 189.714844 C 220.375 188.886719 221.457031 188.011719 222.503906 187.09375 C 223.550781 186.179688 224.558594 185.222656 225.53125 184.226562 C 226.5 183.230469 227.433594 182.199219 228.320312 181.132812 C 229.210938 180.0625 230.058594 178.960938 230.859375 177.824219 C 231.664062 176.6875 232.417969 175.523438 233.128906 174.328125 C 233.839844 173.132812 234.503906 171.914062 235.117188 170.667969 C 235.730469 169.417969 236.296875 168.148438 236.808594 166.859375 C 237.324219 165.566406 237.785156 164.257812 238.195312 162.929688 C 238.605469 161.601562 238.964844 160.257812 239.269531 158.902344 C 239.96875 158.726562 240.648438 158.492188 241.308594 158.191406 C 241.964844 157.894531 242.59375 157.539062 243.1875 157.128906 C 243.78125 156.714844 244.332031 156.253906 244.839844 155.742188 C 245.351562 155.230469 245.808594 154.675781 246.21875 154.082031 C 246.628906 153.484375 246.980469 152.859375 247.273438 152.199219 C 247.570312 151.542969 247.804688 150.863281 247.976562 150.160156 C 248.144531 149.460938 248.253906 148.75 248.296875 148.027344 C 248.335938 147.308594 248.316406 146.589844 248.226562 145.875 C 248.136719 145.15625 247.984375 144.453125 247.769531 143.765625 C 247.554688 143.078125 247.277344 142.414062 246.941406 141.773438 C 246.601562 141.136719 246.210938 140.53125 245.765625 139.964844 C 245.320312 139.398438 244.824219 138.875 244.285156 138.398438 C 243.742188 137.917969 243.160156 137.492188 242.542969 137.121094 C 241.925781 136.746094 241.277344 136.433594 240.601562 136.175781 C 239.925781 135.921875 239.230469 135.726562 238.519531 135.597656 C 237.808594 135.46875 237.09375 135.402344 236.371094 135.402344 Z M 236.367188 152.789062 C 236.007812 152.789062 235.652344 152.753906 235.300781 152.683594 C 234.949219 152.617188 234.605469 152.511719 234.273438 152.375 C 233.941406 152.238281 233.628906 152.070312 233.328125 151.871094 C 233.03125 151.671875 232.753906 151.445312 232.5 151.191406 C 232.246094 150.9375 232.019531 150.660156 231.820312 150.363281 C 231.621094 150.066406 231.453125 149.75 231.316406 149.417969 C 231.175781 149.089844 231.074219 148.746094 231.003906 148.394531 C 230.933594 148.042969 230.898438 147.6875 230.898438 147.328125 C 230.898438 146.972656 230.933594 146.617188 231.003906 146.265625 C 231.074219 145.914062 231.175781 145.570312 231.316406 145.242188 C 231.453125 144.910156 231.621094 144.59375 231.820312 144.296875 C 232.019531 144 232.246094 143.722656 232.5 143.46875 C 232.753906 143.214844 233.03125 142.988281 233.328125 142.789062 C 233.628906 142.589844 233.941406 142.421875 234.273438 142.285156 C 234.605469 142.148438 234.949219 142.042969 235.300781 141.976562 C 235.652344 141.90625 236.007812 141.871094 236.367188 141.871094 C 236.726562 141.871094 237.082031 141.90625 237.433594 141.976562 C 237.789062 142.046875 238.128906 142.148438 238.460938 142.285156 C 238.792969 142.421875 239.109375 142.589844 239.40625 142.789062 C 239.707031 142.988281 239.980469 143.214844 240.234375 143.46875 C 240.488281 143.722656 240.714844 144 240.917969 144.296875 C 241.117188 144.597656 241.285156 144.910156 241.421875 145.242188 C 241.558594 145.574219 241.664062 145.914062 241.730469 146.265625 C 241.800781 146.617188 241.835938 146.972656 241.835938 147.332031 C 241.835938 147.691406 241.800781 148.042969 241.730469 148.394531 C 241.660156 148.746094 241.554688 149.089844 241.417969 149.417969 C 241.28125 149.75 241.113281 150.066406 240.914062 150.363281 C 240.714844 150.660156 240.488281 150.9375 240.234375 151.191406 C 239.980469 151.441406 239.703125 151.667969 239.40625 151.867188 C 239.105469 152.066406 238.792969 152.234375 238.460938 152.371094 C 238.128906 152.511719 237.785156 152.613281 237.433594 152.683594 C 237.082031 152.753906 236.726562 152.789062 236.367188 152.789062 Z M 150.734375 147.332031 C 150.734375 146.285156 150.597656 145.253906 150.324219 144.242188 C 150.050781 143.230469 149.652344 142.269531 149.125 141.363281 C 148.601562 140.453125 147.964844 139.632812 147.222656 138.890625 C 146.476562 138.152344 145.652344 137.519531 144.742188 136.996094 C 145.015625 135.875 145.332031 134.765625 145.691406 133.664062 C 146.054688 132.566406 146.457031 131.484375 146.902344 130.417969 C 147.347656 129.355469 147.835938 128.304688 148.367188 127.277344 C 148.894531 126.25 149.464844 125.246094 150.070312 124.261719 C 150.679688 123.277344 151.324219 122.320312 152.007812 121.390625 C 152.691406 120.457031 153.410156 119.550781 154.167969 118.675781 C 154.921875 117.800781 155.710938 116.957031 156.53125 116.140625 C 157.351562 115.328125 158.207031 114.546875 159.089844 113.800781 C 159.972656 113.054688 160.882812 112.34375 161.824219 111.667969 C 162.761719 110.992188 163.726562 110.355469 164.714844 109.757812 C 165.707031 109.15625 166.71875 108.597656 167.75 108.078125 C 168.785156 107.558594 169.835938 107.078125 170.910156 106.644531 C 171.980469 106.207031 173.066406 105.8125 174.171875 105.460938 C 175.273438 105.109375 176.386719 104.800781 177.515625 104.535156 C 178.640625 104.273438 179.777344 104.054688 180.921875 103.878906 C 182.066406 103.703125 183.214844 103.574219 184.367188 103.492188 C 185.523438 103.40625 186.679688 103.367188 187.835938 103.375 C 188.992188 103.382812 190.148438 103.433594 191.300781 103.53125 C 192.457031 103.628906 193.601562 103.769531 194.746094 103.957031 C 195.886719 104.144531 197.019531 104.378906 198.144531 104.65625 C 199.269531 104.933594 200.378906 105.253906 201.476562 105.617188 C 202.574219 105.980469 203.65625 106.386719 204.722656 106.835938 C 205.789062 107.285156 206.839844 107.777344 207.867188 108.308594 C 208.894531 108.839844 209.898438 109.410156 210.882812 110.019531 C 211.863281 110.632812 212.820312 111.28125 213.753906 111.964844 C 214.683594 112.652344 215.585938 113.371094 216.460938 114.128906 C 217.335938 114.886719 218.179688 115.675781 218.992188 116.5 C 219.804688 117.324219 220.582031 118.175781 221.328125 119.0625 C 222.074219 119.945312 222.78125 120.859375 223.453125 121.796875 C 224.128906 122.738281 224.761719 123.703125 225.359375 124.691406 C 225.957031 125.683594 226.511719 126.695312 227.03125 127.730469 C 227.546875 128.761719 228.023438 129.816406 228.457031 130.886719 C 230.738281 129.566406 233.199219 128.910156 235.835938 128.914062 C 236.316406 128.914062 236.789062 128.9375 237.257812 128.984375 C 236.980469 128.226562 236.683594 127.484375 236.375 126.746094 C 235.832031 125.46875 235.242188 124.210938 234.601562 122.976562 C 233.960938 121.742188 233.273438 120.535156 232.535156 119.355469 C 231.800781 118.175781 231.019531 117.027344 230.191406 115.910156 C 229.367188 114.789062 228.496094 113.707031 227.582031 112.65625 C 226.671875 111.605469 225.71875 110.59375 224.726562 109.621094 C 223.734375 108.644531 222.707031 107.710938 221.640625 106.816406 C 220.574219 105.921875 219.472656 105.070312 218.339844 104.265625 C 217.207031 103.457031 216.042969 102.695312 214.851562 101.980469 C 213.65625 101.265625 212.4375 100.597656 211.191406 99.976562 C 209.945312 99.359375 208.675781 98.789062 207.382812 98.269531 C 206.09375 97.75 204.785156 97.28125 203.457031 96.863281 C 202.128906 96.445312 200.785156 96.082031 199.429688 95.773438 C 198.070312 95.460938 196.703125 95.203125 195.328125 95 C 193.949219 94.796875 192.566406 94.648438 191.175781 94.554688 C 189.789062 94.460938 188.398438 94.417969 187.003906 94.433594 C 185.613281 94.449219 184.222656 94.519531 182.835938 94.644531 C 181.449219 94.769531 180.070312 94.945312 178.699219 95.179688 C 177.328125 95.414062 175.964844 95.699219 174.617188 96.039062 C 173.265625 96.378906 171.929688 96.773438 170.613281 97.21875 C 169.292969 97.664062 167.992188 98.160156 166.714844 98.707031 C 165.433594 99.253906 164.179688 99.851562 162.945312 100.496094 C 161.714844 101.144531 160.507812 101.835938 159.332031 102.578125 C 158.152344 103.320312 157.007812 104.105469 155.890625 104.9375 C 154.773438 105.769531 153.695312 106.640625 152.648438 107.558594 C 151.601562 108.476562 150.59375 109.433594 149.621094 110.425781 C 148.648438 111.421875 147.71875 112.457031 146.832031 113.527344 C 145.941406 114.59375 145.09375 115.695312 144.292969 116.832031 C 143.492188 117.96875 142.734375 119.132812 142.023438 120.328125 C 141.3125 121.523438 140.652344 122.746094 140.039062 123.992188 C 139.421875 125.242188 138.859375 126.511719 138.347656 127.804688 C 137.832031 129.09375 137.371094 130.40625 136.960938 131.734375 C 136.550781 133.0625 136.195312 134.402344 135.890625 135.757812 C 135.167969 135.941406 134.46875 136.183594 133.792969 136.496094 C 133.117188 136.804688 132.476562 137.175781 131.871094 137.605469 C 131.265625 138.035156 130.703125 138.515625 130.1875 139.050781 C 129.671875 139.585938 129.210938 140.160156 128.800781 140.78125 C 128.394531 141.402344 128.046875 142.054688 127.761719 142.742188 C 127.472656 143.425781 127.253906 144.132812 127.101562 144.855469 C 126.945312 145.582031 126.859375 146.316406 126.84375 147.058594 C 126.824219 147.800781 126.878906 148.539062 127 149.269531 C 127.121094 150.003906 127.308594 150.71875 127.5625 151.414062 C 127.816406 152.113281 128.132812 152.78125 128.511719 153.417969 C 128.894531 154.058594 129.328125 154.65625 129.820312 155.210938 C 130.308594 155.769531 130.847656 156.277344 131.433594 156.734375 C 132.019531 157.191406 132.644531 157.589844 133.304688 157.929688 C 133.964844 158.269531 134.652344 158.546875 135.363281 158.757812 C 136.078125 158.972656 136.800781 159.117188 137.542969 159.195312 C 138.28125 159.269531 139.019531 159.28125 139.761719 159.21875 C 140.503906 159.160156 141.230469 159.03125 141.949219 158.832031 C 142.667969 158.636719 143.359375 158.375 144.027344 158.050781 C 144.695312 157.726562 145.328125 157.339844 145.921875 156.898438 C 146.519531 156.453125 147.070312 155.960938 147.574219 155.414062 C 148.078125 154.867188 148.527344 154.28125 148.921875 153.652344 C 149.316406 153.023438 149.648438 152.363281 149.917969 151.671875 C 150.1875 150.980469 150.390625 150.269531 150.527344 149.539062 C 150.667969 148.808594 150.734375 148.074219 150.734375 147.332031 Z M 133.320312 147.332031 C 133.320312 146.972656 133.351562 146.617188 133.421875 146.265625 C 133.492188 145.914062 133.597656 145.574219 133.734375 145.242188 C 133.871094 144.910156 134.039062 144.59375 134.238281 144.296875 C 134.441406 144 134.667969 143.722656 134.921875 143.46875 C 135.175781 143.214844 135.449219 142.988281 135.75 142.789062 C 136.046875 142.589844 136.363281 142.421875 136.695312 142.285156 C 137.027344 142.148438 137.367188 142.042969 137.722656 141.976562 C 138.074219 141.90625 138.429688 141.871094 138.789062 141.871094 C 139.148438 141.871094 139.503906 141.90625 139.855469 141.976562 C 140.207031 142.042969 140.550781 142.148438 140.878906 142.285156 C 141.210938 142.421875 141.527344 142.589844 141.828125 142.789062 C 142.125 142.988281 142.402344 143.214844 142.65625 143.46875 C 142.910156 143.722656 143.136719 144 143.335938 144.296875 C 143.535156 144.59375 143.703125 144.910156 143.839844 145.242188 C 143.976562 145.570312 144.082031 145.914062 144.152344 146.265625 C 144.222656 146.617188 144.257812 146.972656 144.257812 147.328125 C 144.257812 147.6875 144.222656 148.042969 144.152344 148.394531 C 144.082031 148.746094 143.976562 149.089844 143.839844 149.417969 C 143.703125 149.75 143.535156 150.066406 143.335938 150.363281 C 143.136719 150.660156 142.910156 150.9375 142.65625 151.191406 C 142.402344 151.445312 142.125 151.671875 141.828125 151.871094 C 141.527344 152.070312 141.210938 152.238281 140.882812 152.375 C 140.550781 152.511719 140.207031 152.613281 139.855469 152.683594 C 139.503906 152.753906 139.148438 152.789062 138.789062 152.789062 C 138.429688 152.789062 138.074219 152.753906 137.722656 152.683594 C 137.371094 152.613281 137.027344 152.511719 136.695312 152.375 C 136.363281 152.234375 136.050781 152.066406 135.75 151.867188 C 135.453125 151.667969 135.175781 151.445312 134.921875 151.191406 C 134.667969 150.9375 134.441406 150.660156 134.242188 150.363281 C 134.042969 150.066406 133.875 149.75 133.738281 149.417969 C 133.597656 149.089844 133.496094 148.746094 133.425781 148.394531 C 133.355469 148.042969 133.320312 147.691406 133.320312 147.332031 Z M 187.703125 125.058594 C 189.679688 125.058594 191.621094 125.316406 193.527344 125.832031 C 195.433594 126.347656 197.242188 127.105469 198.949219 128.097656 C 200.65625 129.09375 202.199219 130.292969 203.589844 131.695312 C 204.976562 133.101562 206.15625 134.660156 207.128906 136.378906 L 215.34375 133.273438 C 210.207031 123.246094 199.742188 116.359375 187.703125 116.359375 C 170.597656 116.359375 156.679688 130.253906 156.679688 147.332031 C 156.679688 164.410156 170.597656 178.304688 187.703125 178.304688 C 200.015625 178.304688 210.667969 171.109375 215.679688 160.714844 L 207.617188 157.371094 C 207.15625 158.285156 206.628906 159.164062 206.046875 160.007812 C 205.460938 160.851562 204.820312 161.648438 204.125 162.402344 C 203.429688 163.15625 202.6875 163.859375 201.894531 164.511719 C 201.101562 165.164062 200.265625 165.761719 199.394531 166.296875 C 198.519531 166.835938 197.609375 167.308594 196.671875 167.722656 C 195.730469 168.132812 194.765625 168.480469 193.777344 168.761719 C 192.789062 169.039062 191.785156 169.25 190.769531 169.390625 C 189.753906 169.535156 188.730469 169.605469 187.703125 169.605469 C 175.402344 169.605469 165.394531 159.613281 165.394531 147.332031 C 165.394531 135.050781 175.402344 125.058594 187.703125 125.058594 Z M 187.703125 125.058594 " clip-rule="nonzero"/></clipPath><linearGradient x1="-0.0648494" gradientTransform="matrix(0.162004, 0, 0, 0.161732, 126.838372, 94.456638)" xmlns:xlink="http://www.w3.org/1999/xlink" y1="326.92999" x2="749.914699" gradientUnits="userSpaceOnUse" y2="326.92999" xlink:type="simple" xlink:actuate="onLoad" id="linear-pattern-0" xlink:show="other"><stop stop-opacity="1" stop-color="rgb(32.199097%, 44.299316%, 100%)" offset="0"/><stop stop-opacity="1" stop-color="rgb(32.159424%, 44.403076%, 100%)" offset="0.0078125"/><stop stop-opacity="1" stop-color="rgb(32.080078%, 44.613647%, 100%)" offset="0.015625"/><stop stop-opacity="1" stop-color="rgb(32.000732%, 44.825745%, 100%)" offset="0.0234375"/><stop stop-opacity="1" stop-color="rgb(31.921387%, 45.037842%, 100%)" offset="0.03125"/><stop stop-opacity="1" stop-color="rgb(31.842041%, 45.249939%, 100%)" offset="0.0390625"/><stop stop-opacity="1" stop-color="rgb(31.761169%, 45.46051%, 100%)" offset="0.046875"/><stop stop-opacity="1" stop-color="rgb(31.681824%, 45.672607%, 100%)" offset="0.0546875"/><stop stop-opacity="1" stop-color="rgb(31.602478%, 45.884705%, 100%)" offset="0.0625"/><stop stop-opacity="1" stop-color="rgb(31.523132%, 46.096802%, 100%)" offset="0.0703125"/><stop stop-opacity="1" stop-color="rgb(31.442261%, 46.307373%, 100%)" offset="0.078125"/><stop stop-opacity="1" stop-color="rgb(31.362915%, 46.51947%, 100%)" offset="0.0859375"/><stop stop-opacity="1" stop-color="rgb(31.283569%, 46.731567%, 100%)" offset="0.09375"/><stop stop-opacity="1" stop-color="rgb(31.204224%, 46.943665%, 100%)" offset="0.101562"/><stop stop-opacity="1" stop-color="rgb(31.123352%, 47.154236%, 100%)" offset="0.109375"/><stop stop-opacity="1" stop-color="rgb(31.044006%, 47.366333%, 100%)" offset="0.117187"/><stop stop-opacity="1" stop-color="rgb(30.964661%, 47.57843%, 100%)" offset="0.125"/><stop stop-opacity="1" stop-color="rgb(30.885315%, 47.790527%, 100%)" offset="0.132812"/><stop stop-opacity="1" stop-color="rgb(30.804443%, 48.002625%, 100%)" offset="0.140625"/><stop stop-opacity="1" stop-color="rgb(30.725098%, 48.213196%, 100%)" offset="0.148437"/><stop stop-opacity="1" stop-color="rgb(30.645752%, 48.425293%, 100%)" offset="0.15625"/><stop stop-opacity="1" stop-color="rgb(30.566406%, 48.63739%, 100%)" offset="0.164062"/><stop stop-opacity="1" stop-color="rgb(30.487061%, 48.849487%, 100%)" offset="0.171875"/><stop stop-opacity="1" stop-color="rgb(30.406189%, 49.060059%, 100%)" offset="0.179687"/><stop stop-opacity="1" stop-color="rgb(30.326843%, 49.272156%, 100%)" offset="0.1875"/><stop stop-opacity="1" stop-color="rgb(30.247498%, 49.484253%, 100%)" offset="0.195312"/><stop stop-opacity="1" stop-color="rgb(30.168152%, 49.69635%, 100%)" offset="0.203125"/><stop stop-opacity="1" stop-color="rgb(30.08728%, 49.908447%, 100%)" offset="0.210937"/><stop stop-opacity="1" stop-color="rgb(30.007935%, 50.119019%, 100%)" offset="0.21875"/><stop stop-opacity="1" stop-color="rgb(29.928589%, 50.331116%, 100%)" offset="0.226562"/><stop stop-opacity="1" stop-color="rgb(29.849243%, 50.543213%, 100%)" offset="0.234375"/><stop stop-opacity="1" stop-color="rgb(29.768372%, 50.75531%, 100%)" offset="0.242187"/><stop stop-opacity="1" stop-color="rgb(29.689026%, 50.965881%, 100%)" offset="0.25"/><stop stop-opacity="1" stop-color="rgb(29.60968%, 51.177979%, 100%)" offset="0.257812"/><stop stop-opacity="1" stop-color="rgb(29.530334%, 51.390076%, 100%)" offset="0.265625"/><stop stop-opacity="1" stop-color="rgb(29.450989%, 51.602173%, 100%)" offset="0.273438"/><stop stop-opacity="1" stop-color="rgb(29.370117%, 51.81427%, 100%)" offset="0.28125"/><stop stop-opacity="1" stop-color="rgb(29.290771%, 52.024841%, 100%)" offset="0.289062"/><stop stop-opacity="1" stop-color="rgb(29.211426%, 52.236938%, 100%)" offset="0.296875"/><stop stop-opacity="1" stop-color="rgb(29.13208%, 52.449036%, 100%)" offset="0.304687"/><stop stop-opacity="1" stop-color="rgb(29.051208%, 52.661133%, 100%)" offset="0.3125"/><stop stop-opacity="1" stop-color="rgb(28.971863%, 52.871704%, 100%)" offset="0.320312"/><stop stop-opacity="1" stop-color="rgb(28.892517%, 53.083801%, 100%)" offset="0.328125"/><stop stop-opacity="1" stop-color="rgb(28.813171%, 53.295898%, 100%)" offset="0.335938"/><stop stop-opacity="1" stop-color="rgb(28.7323%, 53.507996%, 100%)" offset="0.34375"/><stop stop-opacity="1" stop-color="rgb(28.652954%, 53.720093%, 100%)" offset="0.351562"/><stop stop-opacity="1" stop-color="rgb(28.573608%, 53.930664%, 100%)" offset="0.359375"/><stop stop-opacity="1" stop-color="rgb(28.494263%, 54.142761%, 100%)" offset="0.367187"/><stop stop-opacity="1" stop-color="rgb(28.413391%, 54.354858%, 100%)" offset="0.375"/><stop stop-opacity="1" stop-color="rgb(28.334045%, 54.566956%, 100%)" offset="0.382812"/><stop stop-opacity="1" stop-color="rgb(28.2547%, 54.777527%, 100%)" offset="0.390625"/><stop stop-opacity="1" stop-color="rgb(28.175354%, 54.989624%, 100%)" offset="0.398438"/><stop stop-opacity="1" stop-color="rgb(28.096008%, 55.201721%, 100%)" offset="0.40625"/><stop stop-opacity="1" stop-color="rgb(28.015137%, 55.413818%, 100%)" offset="0.414062"/><stop stop-opacity="1" stop-color="rgb(27.935791%, 55.625916%, 100%)" offset="0.421875"/><stop stop-opacity="1" stop-color="rgb(27.856445%, 55.836487%, 100%)" offset="0.429687"/><stop stop-opacity="1" stop-color="rgb(27.7771%, 56.048584%, 100%)" offset="0.4375"/><stop stop-opacity="1" stop-color="rgb(27.696228%, 56.260681%, 100%)" offset="0.445312"/><stop stop-opacity="1" stop-color="rgb(27.616882%, 56.472778%, 100%)" offset="0.453125"/><stop stop-opacity="1" stop-color="rgb(27.537537%, 56.68335%, 100%)" offset="0.460937"/><stop stop-opacity="1" stop-color="rgb(27.458191%, 56.895447%, 100%)" offset="0.46875"/><stop stop-opacity="1" stop-color="rgb(27.377319%, 57.107544%, 100%)" offset="0.476562"/><stop stop-opacity="1" stop-color="rgb(27.297974%, 57.319641%, 100%)" offset="0.484375"/><stop stop-opacity="1" stop-color="rgb(27.218628%, 57.531738%, 100%)" offset="0.492188"/><stop stop-opacity="1" stop-color="rgb(27.139282%, 57.74231%, 100%)" offset="0.5"/><stop stop-opacity="1" stop-color="rgb(27.059937%, 57.954407%, 100%)" offset="0.507812"/><stop stop-opacity="1" stop-color="rgb(26.979065%, 58.166504%, 100%)" offset="0.515625"/><stop stop-opacity="1" stop-color="rgb(26.899719%, 58.378601%, 100%)" offset="0.523437"/><stop stop-opacity="1" stop-color="rgb(26.820374%, 58.589172%, 100%)" offset="0.53125"/><stop stop-opacity="1" stop-color="rgb(26.741028%, 58.80127%, 100%)" offset="0.539062"/><stop stop-opacity="1" stop-color="rgb(26.660156%, 59.013367%, 100%)" offset="0.546875"/><stop stop-opacity="1" stop-color="rgb(26.580811%, 59.225464%, 100%)" offset="0.554687"/><stop stop-opacity="1" stop-color="rgb(26.501465%, 59.437561%, 100%)" offset="0.5625"/><stop stop-opacity="1" stop-color="rgb(26.422119%, 59.648132%, 100%)" offset="0.570312"/><stop stop-opacity="1" stop-color="rgb(26.341248%, 59.860229%, 100%)" offset="0.578125"/><stop stop-opacity="1" stop-color="rgb(26.261902%, 60.072327%, 100%)" offset="0.585938"/><stop stop-opacity="1" stop-color="rgb(26.182556%, 60.284424%, 100%)" offset="0.59375"/><stop stop-opacity="1" stop-color="rgb(26.10321%, 60.494995%, 100%)" offset="0.601562"/><stop stop-opacity="1" stop-color="rgb(26.022339%, 60.707092%, 100%)" offset="0.609375"/><stop stop-opacity="1" stop-color="rgb(25.942993%, 60.919189%, 100%)" offset="0.617187"/><stop stop-opacity="1" stop-color="rgb(25.863647%, 61.131287%, 100%)" offset="0.625"/><stop stop-opacity="1" stop-color="rgb(25.784302%, 61.341858%, 100%)" offset="0.632812"/><stop stop-opacity="1" stop-color="rgb(25.704956%, 61.553955%, 100%)" offset="0.640625"/><stop stop-opacity="1" stop-color="rgb(25.624084%, 61.766052%, 100%)" offset="0.648437"/><stop stop-opacity="1" stop-color="rgb(25.544739%, 61.978149%, 100%)" offset="0.65625"/><stop stop-opacity="1" stop-color="rgb(25.465393%, 62.190247%, 100%)" offset="0.664062"/><stop stop-opacity="1" stop-color="rgb(25.386047%, 62.400818%, 100%)" offset="0.671875"/><stop stop-opacity="1" stop-color="rgb(25.305176%, 62.612915%, 100%)" offset="0.679687"/><stop stop-opacity="1" stop-color="rgb(25.22583%, 62.825012%, 100%)" offset="0.6875"/><stop stop-opacity="1" stop-color="rgb(25.146484%, 63.037109%, 100%)" offset="0.695312"/><stop stop-opacity="1" stop-color="rgb(25.067139%, 63.247681%, 100%)" offset="0.703125"/><stop stop-opacity="1" stop-color="rgb(24.986267%, 63.459778%, 100%)" offset="0.710938"/><stop stop-opacity="1" stop-color="rgb(24.906921%, 63.671875%, 100%)" offset="0.71875"/><stop stop-opacity="1" stop-color="rgb(24.827576%, 63.883972%, 100%)" offset="0.726562"/><stop stop-opacity="1" stop-color="rgb(24.74823%, 64.096069%, 100%)" offset="0.734375"/><stop stop-opacity="1" stop-color="rgb(24.668884%, 64.306641%, 100%)" offset="0.742187"/><stop stop-opacity="1" stop-color="rgb(24.588013%, 64.518738%, 100%)" offset="0.75"/><stop stop-opacity="1" stop-color="rgb(24.508667%, 64.730835%, 100%)" offset="0.757812"/><stop stop-opacity="1" stop-color="rgb(24.429321%, 64.942932%, 100%)" offset="0.765625"/><stop stop-opacity="1" stop-color="rgb(24.349976%, 65.153503%, 100%)" offset="0.773437"/><stop stop-opacity="1" stop-color="rgb(24.269104%, 65.365601%, 100%)" offset="0.78125"/><stop stop-opacity="1" stop-color="rgb(24.189758%, 65.577698%, 100%)" offset="0.789062"/><stop stop-opacity="1" stop-color="rgb(24.110413%, 65.789795%, 100%)" offset="0.796875"/><stop stop-opacity="1" stop-color="rgb(24.031067%, 66.001892%, 100%)" offset="0.804687"/><stop stop-opacity="1" stop-color="rgb(23.950195%, 66.212463%, 100%)" offset="0.8125"/><stop stop-opacity="1" stop-color="rgb(23.87085%, 66.424561%, 100%)" offset="0.820312"/><stop stop-opacity="1" stop-color="rgb(23.791504%, 66.636658%, 100%)" offset="0.828125"/><stop stop-opacity="1" stop-color="rgb(23.712158%, 66.848755%, 100%)" offset="0.835937"/><stop stop-opacity="1" stop-color="rgb(23.632812%, 67.059326%, 100%)" offset="0.84375"/><stop stop-opacity="1" stop-color="rgb(23.551941%, 67.271423%, 100%)" offset="0.851562"/><stop stop-opacity="1" stop-color="rgb(23.472595%, 67.483521%, 100%)" offset="0.859375"/><stop stop-opacity="1" stop-color="rgb(23.39325%, 67.695618%, 100%)" offset="0.867187"/><stop stop-opacity="1" stop-color="rgb(23.313904%, 67.907715%, 100%)" offset="0.875"/><stop stop-opacity="1" stop-color="rgb(23.233032%, 68.118286%, 100%)" offset="0.882812"/><stop stop-opacity="1" stop-color="rgb(23.153687%, 68.330383%, 100%)" offset="0.890625"/><stop stop-opacity="1" stop-color="rgb(23.074341%, 68.54248%, 100%)" offset="0.898437"/><stop stop-opacity="1" stop-color="rgb(22.994995%, 68.754578%, 100%)" offset="0.90625"/><stop stop-opacity="1" stop-color="rgb(22.914124%, 68.965149%, 100%)" offset="0.914062"/><stop stop-opacity="1" stop-color="rgb(22.834778%, 69.177246%, 100%)" offset="0.921875"/><stop stop-opacity="1" stop-color="rgb(22.755432%, 69.389343%, 100%)" offset="0.929687"/><stop stop-opacity="1" stop-color="rgb(22.676086%, 69.60144%, 100%)" offset="0.9375"/><stop stop-opacity="1" stop-color="rgb(22.595215%, 69.813538%, 100%)" offset="0.945312"/><stop stop-opacity="1" stop-color="rgb(22.515869%, 70.024109%, 100%)" offset="0.953125"/><stop stop-opacity="1" stop-color="rgb(22.436523%, 70.236206%, 100%)" offset="0.960937"/><stop stop-opacity="1" stop-color="rgb(22.357178%, 70.448303%, 100%)" offset="0.96875"/><stop stop-opacity="1" stop-color="rgb(22.277832%, 70.6604%, 100%)" offset="0.976562"/><stop stop-opacity="1" stop-color="rgb(22.19696%, 70.870972%, 100%)" offset="0.984375"/><stop stop-opacity="1" stop-color="rgb(22.117615%, 71.083069%, 100%)" offset="0.992187"/><stop stop-opacity="1" stop-color="rgb(22.038269%, 71.29364%, 100%)" offset="1"/></linearGradient></defs><g clip-path="url(#clip-0)"><g clip-path="url(#clip-1)"><path fill="url(#linear-pattern-0)" d="M 126.828125 94.457031 L 126.828125 200.207031 L 248.328125 200.207031 L 248.328125 94.457031 Z M 126.828125 94.457031 " fill-rule="nonzero"/></g></g></svg>